# xmcd
#
# Track frame offsets:
#	150
#	18762
#	41805
#	58300
#	79380
#	98285
#	116142
#	134597
#	155870
#	170812
#	182937
#
# Disc length: 2700
#
# Revision: 2
# Processed by: cddbd v1.5.1PL0 Copyright (c) Steve Scherf et al.
# Submitted via: DiscPlay 4.0.3
# Normalized: r1:DSETVAR1,TSWAP
#
DISCID=9e0a8a0b
DTITLE=Various Artist - Proc 97329 July'97 Warner radio compilation
DYEAR=1900
DGENRE=
TTITLE0=paula cole - I Don't want to wait
TTITLE1=Dadawa - Ballad of Lhasa
TTITLE2=Duncan Sheik - She Runs Away
TTITLE3=Eric Benet - Tru To Myself
TTITLE4=Edwin McCain - See The Sky Again
TTITLE5=John Fogerty - *(ctry) Southern Streanline
TTITLE6=Travis Tritt feat. Lari White - *(ctry) Helping me Get Over You
TTITLE7=Son Volt - Caryatid Easy
TTITLE8=The Dambuilders - Burn This Bridge
TTITLE9=Kara's Flowers - Soap Disco
TTITLE10=Lil' Kim - Not Tonight
EXTD=
EXTT0=
EXTT1=
EXTT2=
EXTT3=
EXTT4=
EXTT5=
EXTT6=
EXTT7=
EXTT8=
EXTT9=
EXTT10=
PLAYORDER=
